# File created by Blade
# Date/Time:  Mon Sep 22 17:46:01 2014
# Frame Rate: 120.000 fps
#------------------------------------------------------
:FULLY-SPECIFIED
:DEGREES
2267
root 5.114999 36.897231 5.762334 -11.280939 -29.000039 -4.914557
RightUpLeg 2.700025 -43.803777 -26.975635
RightLeg 125.936703 -0.000000 -0.000000
RightFoot -1.434040 -15.902134 11.757928
RightToeBase -3.374939 -0.000000 0.000000
LeftUpLeg 24.500833 13.569379 -1.538436
LeftLeg -6.958072 -0.000000 0.000000
LeftFoot -12.569871 22.118177 -10.220185
LeftToeBase 3.066689 -0.000000 -0.000000
Spine 18.783900 -2.090168 -13.429497
RightShoulder -1.281460 -34.127253 -2.496800
RightArm 17.662625 -20.077445 67.599615
RightForeArm 7.560580 -0.000000 48.434554
RightHand -3.384967 -0.000000 -14.146135
RightHandThumb1 -24.326973 -0.000000 -32.862282
LeftShoulder -18.077893 33.855550 1.756350
LeftArm 54.337715 -24.508506 -70.822424
LeftForeArm 25.274986 -0.000000 110.078864
LeftHand -29.807739 -0.000000 13.693442
LeftHandThumb1 -26.253704 0.000000 33.147579
Head 30.349472 16.030901 18.796763
2268
root 5.115729 36.873414 5.777051 -11.362519 -29.186257 -4.666646
RightUpLeg 2.764253 -43.546476 -27.060927
RightLeg 124.981624 -0.000000 -0.000000
RightFoot -2.003479 -16.065643 11.506836
RightToeBase -3.269068 -0.000000 0.000000
LeftUpLeg 24.541643 13.639589 -1.777305
LeftLeg -7.063675 -0.000000 0.000000
LeftFoot -12.669859 22.153330 -10.413637
LeftToeBase 3.184121 -0.000000 -0.000000
Spine 18.643422 -1.902848 -13.715831
RightShoulder -1.251688 -34.125772 -2.536569
RightArm 17.697122 -20.159377 67.579182
RightForeArm 7.632890 -0.000000 48.446846
RightHand -3.369828 -0.000000 -14.120461
RightHandThumb1 -24.326973 -0.000000 -32.862282
LeftShoulder -18.098913 33.852720 1.749074
LeftArm 54.308832 -24.706929 -70.715157
LeftForeArm 25.307653 -0.000000 110.204264
LeftHand -29.942397 -0.000000 13.560577
LeftHandThumb1 -26.253704 0.000000 33.147579
Head 30.332078 16.036334 18.791134
2269
root 5.113409 36.851291 5.793858 -11.444583 -29.402195 -4.435885
RightUpLeg 2.807825 -43.277910 -27.114536
RightLeg 124.089105 -0.000000 -0.000000
RightFoot -2.464694 -16.283517 11.330841
RightToeBase -3.395578 -0.000000 0.000000
LeftUpLeg 24.603629 13.668393 -2.007143
LeftLeg -7.181384 -0.000000 0.000000
LeftFoot -12.714286 22.244746 -10.520548
LeftToeBase 3.216690 -0.000000 -0.000000
Spine 18.494536 -1.699599 -13.979165
RightShoulder -1.226337 -34.120939 -2.549461
RightArm 17.741007 -20.254333 67.522439
RightForeArm 7.628912 -0.000000 48.439940
RightHand -3.311656 -0.000000 -14.143737
RightHandThumb1 -24.326973 -0.000000 -32.862282
LeftShoulder -18.178028 33.888750 1.695523
LeftArm 54.352236 -24.874423 -70.643868
LeftForeArm 25.385137 -0.000000 110.289347
LeftHand -30.018330 -0.000000 13.509538
LeftHandThumb1 -26.253704 0.000000 33.147579
Head 30.337670 16.029517 18.765164
2270
root 5.115852 36.829749 5.808892 -11.523408 -29.637540 -4.172893
RightUpLeg 2.779655 -43.027810 -27.164092
RightLeg 123.273240 -0.000000 -0.000000
RightFoot -3.071055 -16.623681 11.610869
RightToeBase -2.873880 -0.000000 0.000000
LeftUpLeg 24.636306 13.706074 -2.277286
LeftLeg -7.290147 -0.000000 0.000000
LeftFoot -12.721339 22.368065 -10.572917
LeftToeBase 3.192215 -0.000000 -0.000000
Spine 18.322742 -1.475717 -14.257683
RightShoulder -1.222538 -34.099495 -2.536548
RightArm 17.795835 -20.362209 67.441841
RightForeArm 7.625015 0.000000 48.419092
RightHand -3.321017 -0.000000 -14.079316
RightHandThumb1 -24.326973 -0.000000 -32.862282
LeftShoulder -18.237407 33.914465 1.667713
LeftArm 54.394766 -25.007527 -70.617309
LeftForeArm 25.378432 -0.000000 110.368479
LeftHand -30.128725 -0.000000 13.696139
LeftHandThumb1 -26.253704 0.000000 33.147579
Head 30.360020 16.053600 18.750442
2271
root 5.119849 36.809017 5.821926 -11.578359 -29.872590 -3.927043
RightUpLeg 2.712412 -42.818401 -27.180615
RightLeg 122.565753 -0.000000 -0.000000
RightFoot -3.561433 -16.986672 11.732328
RightToeBase -2.585365 -0.000000 0.000000
LeftUpLeg 24.619136 13.703164 -2.556645
LeftLeg -7.363078 -0.000000 0.000000
LeftFoot -12.810707 22.519012 -10.755111
LeftToeBase 3.246806 -0.000000 -0.000000
Spine 18.127055 -1.277173 -14.513472
RightShoulder -1.196816 -34.112113 -2.538270
RightArm 17.882187 -20.438695 67.361763
RightForeArm 7.669344 -0.000000 48.387299
RightHand -3.264683 0.000000 -14.032193
RightHandThumb1 -24.326973 -0.000000 -32.862282
LeftShoulder -18.252908 33.863300 1.676176
LeftArm 54.301491 -25.177312 -70.557740
LeftForeArm 25.564509 -0.000000 110.438248
LeftHand -30.103834 -0.000000 13.752387
LeftHandThumb1 -26.253704 0.000000 33.147579
Head 30.430426 16.082530 18.712887
2272
root 5.122798 36.790939 5.835385 -11.631082 -30.106638 -3.735363
RightUpLeg 2.672199 -42.646691 -27.165741
RightLeg 121.936315 -0.000000 -0.000000
RightFoot -3.842642 -17.372764 11.540868
RightToeBase -2.660801 -0.000000 0.000000
LeftUpLeg 24.632570 13.756605 -2.755085
LeftLeg -7.432803 -0.000000 0.000000
LeftFoot -12.910250 22.600668 -10.944344
LeftToeBase 3.319020 -0.000000 -0.000000
Spine 17.962511 -1.094522 -14.702348
RightShoulder -1.186076 -34.078522 -2.527527
RightArm 17.954761 -20.495816 67.265621
RightForeArm 7.667272 -0.000000 48.339983
RightHand -3.316650 -0.000000 -14.019443
RightHandThumb1 -24.326973 -0.000000 -32.862282
LeftShoulder -18.266336 33.847566 1.696300
LeftArm 54.283977 -25.272087 -70.658759
LeftForeArm 25.707367 -0.000000 110.511799
LeftHand -30.171166 -0.000000 13.975462
LeftHandThumb1 -26.253704 0.000000 33.147579
Head 30.507753 16.108445 18.656371
